<svg id="svg" version="1.1" xmlns="http://www.w3.org/2000/svg" xmlns:xlink="http://www.w3.org/1999/xlink" width="400" height="227.13896457765668" viewBox="0, 0, 400,227.13896457765668"><g id="svgg"><path id="path0" d="M350.398 129.700 C 350.398 133.837,350.427 135.529,350.463 133.460 C 350.499 131.392,350.499 128.008,350.463 125.940 C 350.427 123.872,350.398 125.564,350.398 129.700 " stroke="none" fill="#247444" fill-rule="evenodd"></path><path id="path1" d="M244.991 0.096 C 244.942 0.144,243.971 0.242,242.833 0.314 C 240.654 0.451,239.151 0.590,237.845 0.777 C 237.412 0.839,236.714 0.929,236.294 0.977 C 235.457 1.073,234.307 1.255,233.460 1.425 C 233.161 1.485,232.621 1.574,232.262 1.621 C 231.351 1.742,230.253 1.947,229.101 2.210 C 228.561 2.333,227.875 2.471,227.575 2.517 C 227.275 2.563,226.785 2.658,226.485 2.728 C 226.185 2.799,225.695 2.903,225.395 2.960 C 225.095 3.018,224.703 3.128,224.523 3.205 C 224.343 3.282,223.962 3.372,223.675 3.406 C 223.389 3.439,222.653 3.614,222.040 3.795 C 221.428 3.975,219.847 4.442,218.529 4.831 C 217.210 5.220,216.082 5.596,216.022 5.668 C 215.962 5.739,215.717 5.810,215.477 5.826 C 215.237 5.842,214.477 6.106,213.787 6.413 C 213.098 6.719,212.534 6.930,212.534 6.880 C 212.534 6.238,195.220 14.501,194.914 15.290 C 194.874 15.393,194.741 15.477,194.620 15.477 C 194.283 15.477,191.826 17.038,191.826 17.252 C 191.826 17.355,191.678 17.439,191.499 17.439 C 191.319 17.439,191.172 17.543,191.172 17.670 C 191.172 17.797,191.074 17.840,190.954 17.766 C 190.834 17.692,190.736 17.735,190.736 17.862 C 190.736 17.989,190.631 18.093,190.502 18.093 C 190.374 18.093,190.132 18.215,189.965 18.365 C 189.260 18.997,188.992 19.192,188.992 19.074 C 188.992 18.946,188.648 19.200,187.886 19.891 C 187.655 20.101,187.466 20.220,187.466 20.155 C 187.466 20.090,187.343 20.140,187.193 20.265 C 187.044 20.391,185.974 21.205,184.817 22.074 C 181.613 24.479,178.401 27.316,175.150 30.614 C 172.154 33.652,171.107 34.811,168.937 37.487 C 168.757 37.708,168.303 38.267,167.927 38.727 C 167.551 39.187,167.219 39.662,167.189 39.782 C 167.159 39.902,166.952 40.128,166.728 40.285 C 166.505 40.442,166.322 40.701,166.322 40.861 C 166.322 41.021,166.168 41.211,165.981 41.283 C 165.793 41.355,165.701 41.513,165.776 41.633 C 165.850 41.754,165.819 41.853,165.705 41.853 C 165.592 41.853,165.002 42.613,164.394 43.542 C 163.786 44.471,163.205 45.330,163.104 45.450 C 163.004 45.569,162.731 46.011,162.498 46.431 C 161.597 48.058,161.771 48.042,159.021 46.736 C 157.660 46.088,156.452 45.559,156.338 45.559 C 156.224 45.559,155.578 45.314,154.903 45.016 C 154.229 44.717,153.603 44.460,153.514 44.445 C 153.425 44.429,153.117 44.327,152.831 44.219 C 152.545 44.110,152.153 43.989,151.959 43.951 C 151.766 43.913,151.339 43.771,151.012 43.637 C 150.367 43.372,146.748 42.384,145.779 42.209 C 145.452 42.150,145.105 42.052,145.008 41.992 C 144.911 41.932,144.443 41.832,143.969 41.771 C 143.494 41.709,142.861 41.599,142.561 41.526 C 141.460 41.258,138.353 40.776,136.828 40.636 C 135.965 40.557,135.201 40.459,135.130 40.418 C 134.657 40.146,125.205 39.917,122.071 40.102 C 115.192 40.507,112.519 40.836,107.575 41.884 C 105.896 42.240,104.278 42.578,103.978 42.636 C 103.678 42.693,102.894 42.901,102.234 43.098 C 100.856 43.510,101.038 43.461,100.054 43.691 C 99.635 43.790,99.046 43.971,98.747 44.094 C 98.447 44.217,98.083 44.342,97.939 44.372 C 97.369 44.491,95.355 45.189,95.150 45.339 C 95.030 45.427,94.651 45.566,94.308 45.648 C 93.740 45.784,92.764 46.177,91.008 46.978 C 90.649 47.142,89.815 47.498,89.155 47.768 C 88.496 48.039,87.896 48.348,87.823 48.454 C 87.750 48.560,87.652 48.624,87.605 48.595 C 87.451 48.498,85.363 49.493,84.967 49.851 C 84.753 50.045,84.578 50.136,84.578 50.053 C 84.578 49.970,84.212 50.151,83.764 50.455 C 83.317 50.759,82.839 51.008,82.704 51.008 C 82.568 51.008,82.196 51.213,81.877 51.464 C 81.558 51.715,80.833 52.165,80.267 52.464 C 79.700 52.763,79.016 53.213,78.747 53.463 C 78.477 53.713,78.253 53.827,78.249 53.716 C 78.245 53.606,78.122 53.672,77.976 53.865 C 77.830 54.057,77.318 54.420,76.838 54.672 C 76.359 54.924,75.722 55.331,75.422 55.576 C 75.123 55.821,74.117 56.568,73.188 57.236 C 72.259 57.903,71.499 58.541,71.499 58.653 C 71.499 58.764,71.397 58.856,71.273 58.856 C 71.011 58.856,70.311 59.457,69.061 60.754 C 68.575 61.259,68.106 61.652,68.020 61.626 C 67.845 61.576,62.938 66.486,61.626 68.023 C 60.002 69.927,59.827 70.135,59.074 71.070 C 58.654 71.591,58.311 72.075,58.311 72.145 C 58.311 72.215,58.041 72.563,57.711 72.919 C 57.381 73.274,57.112 73.647,57.112 73.746 C 57.112 73.846,56.989 74.064,56.839 74.231 C 56.192 74.953,56.022 75.199,56.022 75.413 C 56.022 75.538,55.935 75.640,55.829 75.640 C 55.723 75.640,55.579 75.812,55.509 76.022 C 55.344 76.511,54.885 77.230,54.605 77.435 C 54.481 77.527,54.475 77.597,54.592 77.599 C 54.705 77.601,54.637 77.725,54.441 77.875 C 54.244 78.025,54.054 78.287,54.017 78.459 C 53.981 78.630,53.804 78.952,53.624 79.174 C 53.444 79.396,53.297 79.649,53.297 79.735 C 53.296 79.821,53.069 80.210,52.791 80.599 C 52.514 80.989,52.357 81.308,52.444 81.308 C 52.531 81.308,52.451 81.480,52.267 81.689 C 51.956 82.044,49.918 86.122,49.918 86.390 C 49.918 86.457,49.804 86.787,49.664 87.125 C 49.524 87.462,49.398 87.787,49.384 87.847 C 49.370 87.907,49.236 88.176,49.087 88.444 C 48.684 89.169,47.760 91.989,47.924 91.992 C 48.002 91.994,47.953 92.068,47.815 92.156 C 47.677 92.244,47.503 92.701,47.428 93.172 C 47.354 93.642,47.208 94.132,47.105 94.261 C 46.952 94.452,46.763 95.078,46.541 96.131 C 46.528 96.191,46.453 96.436,46.374 96.676 C 46.295 96.916,46.180 97.399,46.119 97.751 C 45.969 98.620,45.733 98.798,43.597 99.646 C 42.578 100.050,41.711 100.456,41.671 100.546 C 41.631 100.637,41.519 100.663,41.424 100.604 C 41.281 100.515,35.523 103.326,33.569 104.438 C 31.668 105.520,29.851 106.674,29.631 106.939 C 29.490 107.109,29.236 107.248,29.067 107.248 C 28.898 107.248,28.704 107.395,28.635 107.575 C 28.566 107.755,28.397 107.902,28.260 107.902 C 28.123 107.902,27.717 108.159,27.357 108.473 C 26.997 108.786,26.360 109.267,25.940 109.542 C 25.520 109.816,24.868 110.320,24.490 110.661 C 24.113 111.002,23.475 111.525,23.073 111.823 C 22.060 112.575,14.605 120.047,14.605 120.311 C 14.605 120.429,14.384 120.766,14.114 121.061 C 13.845 121.355,13.428 121.855,13.188 122.172 C 12.948 122.488,12.569 122.963,12.346 123.226 C 11.589 124.119,9.795 126.866,9.966 126.870 C 10.060 126.872,9.989 126.966,9.809 127.080 C 9.629 127.194,9.481 127.364,9.480 127.458 C 9.478 127.552,9.173 128.071,8.802 128.610 C 8.103 129.626,7.392 130.915,7.417 131.123 C 7.425 131.188,7.232 131.495,6.988 131.804 C 6.745 132.114,6.599 132.454,6.664 132.560 C 6.730 132.665,6.697 132.752,6.591 132.752 C 6.420 132.752,5.904 133.787,5.124 135.695 C 4.977 136.054,4.728 136.643,4.569 137.003 C 4.411 137.362,4.267 137.706,4.248 137.766 C 4.229 137.826,4.092 138.169,3.942 138.529 C 3.573 139.417,2.638 142.205,2.542 142.703 C 2.499 142.925,2.349 143.390,2.207 143.736 C 2.065 144.082,2.001 144.417,2.063 144.479 C 2.125 144.541,2.092 144.699,1.989 144.830 C 1.714 145.179,1.185 147.639,0.772 150.487 C 0.705 150.949,0.607 151.398,0.554 151.484 C -0.030 152.429,-0.037 166.196,0.545 169.155 C 0.604 169.455,0.708 170.186,0.777 170.780 C 0.845 171.374,0.939 171.922,0.986 171.998 C 1.033 172.073,1.128 172.470,1.197 172.879 C 1.640 175.495,3.133 180.697,3.824 182.034 C 4.005 182.384,4.105 182.670,4.046 182.670 C 3.949 182.670,4.326 183.627,5.120 185.395 C 6.514 188.497,6.835 189.149,7.135 189.482 C 7.324 189.692,7.418 189.864,7.343 189.864 C 7.268 189.864,7.494 190.330,7.846 190.899 C 8.198 191.469,8.632 192.253,8.810 192.643 C 8.987 193.033,9.242 193.351,9.375 193.351 C 9.508 193.351,9.566 193.435,9.503 193.536 C 9.440 193.638,9.557 193.908,9.762 194.136 C 9.968 194.364,10.280 194.829,10.456 195.169 C 10.631 195.509,10.994 196.024,11.263 196.313 C 11.531 196.602,11.699 196.839,11.636 196.839 C 11.573 196.839,11.652 196.976,11.810 197.142 C 11.968 197.309,12.294 197.721,12.534 198.057 C 14.036 200.168,14.528 200.769,16.676 203.118 C 19.443 206.144,24.850 211.160,24.850 210.701 C 24.850 210.630,25.022 210.744,25.232 210.954 C 25.920 211.642,28.300 213.406,28.539 213.406 C 28.668 213.406,28.774 213.495,28.774 213.605 C 28.774 213.714,29.215 214.017,29.755 214.278 C 30.294 214.539,30.736 214.840,30.736 214.947 C 30.736 215.054,30.981 215.203,31.281 215.278 C 31.580 215.354,31.826 215.487,31.826 215.574 C 31.826 215.737,32.707 216.201,32.928 216.156 C 32.995 216.142,33.343 216.378,33.702 216.679 C 34.061 216.981,34.815 217.418,35.379 217.650 C 35.942 217.883,36.403 218.157,36.403 218.259 C 36.403 218.362,36.501 218.385,36.621 218.311 C 36.741 218.237,36.839 218.263,36.839 218.369 C 36.839 218.476,37.354 218.788,37.984 219.062 C 38.613 219.337,39.398 219.702,39.728 219.875 C 40.057 220.047,40.327 220.127,40.327 220.051 C 40.327 219.976,40.481 220.069,40.670 220.257 C 40.858 220.445,41.182 220.599,41.389 220.599 C 41.596 220.599,41.859 220.693,41.973 220.807 C 42.161 220.995,44.763 222.044,45.559 222.253 C 45.738 222.300,47.014 222.726,48.392 223.200 C 49.771 223.674,51.144 224.101,51.444 224.150 C 51.744 224.198,52.136 224.298,52.316 224.372 C 53.238 224.748,58.230 225.814,60.817 226.187 C 61.117 226.230,62.540 226.437,63.978 226.646 C 68.026 227.236,332.171 227.238,336.240 226.648 C 337.678 226.440,339.150 226.229,339.510 226.179 C 341.851 225.856,346.877 224.771,347.902 224.367 C 348.082 224.296,348.474 224.198,348.774 224.150 C 349.074 224.101,350.447 223.674,351.826 223.200 C 353.204 222.726,354.480 222.300,354.659 222.252 C 355.548 222.017,357.618 221.164,357.736 220.984 C 357.809 220.872,357.930 220.786,358.006 220.793 C 358.254 220.816,358.895 220.586,360.000 220.077 C 360.599 219.801,361.605 219.348,362.234 219.069 C 362.864 218.791,363.379 218.476,363.379 218.369 C 363.379 218.263,363.477 218.237,363.597 218.311 C 363.717 218.385,363.815 218.366,363.816 218.269 C 363.816 218.172,364.265 217.908,364.814 217.682 C 365.363 217.457,366.094 217.035,366.439 216.745 C 366.783 216.454,367.094 216.231,367.129 216.249 C 367.273 216.319,368.392 215.722,368.392 215.574 C 368.392 215.487,368.638 215.354,368.937 215.278 C 369.237 215.203,369.482 215.054,369.482 214.947 C 369.482 214.840,369.924 214.539,370.463 214.278 C 371.003 214.017,371.444 213.714,371.444 213.605 C 371.444 213.495,371.554 213.406,371.687 213.406 C 371.952 213.406,374.777 211.259,374.896 210.968 C 374.936 210.870,375.072 210.790,375.199 210.790 C 375.564 210.790,378.555 208.186,381.458 205.341 C 382.673 204.150,385.686 200.797,385.918 200.378 C 386.032 200.170,386.281 199.881,386.469 199.734 C 386.658 199.588,386.744 199.466,386.661 199.462 C 386.578 199.458,386.804 199.136,387.164 198.747 C 387.920 197.928,391.218 193.128,391.425 192.545 C 391.502 192.329,391.684 192.005,391.829 191.826 C 392.319 191.220,393.918 188.120,393.743 188.117 C 393.648 188.115,393.668 188.041,393.788 187.953 C 393.908 187.865,394.122 187.548,394.264 187.248 C 395.151 185.378,395.909 183.572,396.219 182.597 C 396.415 181.978,396.659 181.378,396.762 181.264 C 396.864 181.150,396.948 180.892,396.948 180.690 C 396.948 180.488,397.095 180.041,397.274 179.698 C 397.453 179.355,397.602 178.926,397.604 178.747 C 397.606 178.567,397.745 178.027,397.912 177.548 C 398.078 177.068,398.271 176.381,398.339 176.022 C 398.408 175.662,398.571 174.877,398.701 174.278 C 398.831 173.678,398.985 172.943,399.042 172.643 C 399.099 172.343,399.193 171.938,399.252 171.742 C 399.311 171.545,399.407 171.014,399.465 170.560 C 399.523 170.107,399.612 169.482,399.661 169.173 C 399.872 167.867,400.042 165.668,399.932 165.668 C 399.867 165.668,399.659 165.822,399.471 166.010 C 399.282 166.199,399.128 166.248,399.128 166.119 C 399.128 165.991,399.030 165.886,398.910 165.886 C 398.790 165.886,398.692 166.011,398.692 166.165 C 398.692 166.319,398.471 166.467,398.202 166.494 C 397.671 166.548,396.839 166.706,396.839 166.753 C 396.839 166.769,396.474 166.821,396.028 166.868 C 395.582 166.915,394.993 167.077,394.720 167.227 C 394.447 167.378,393.981 167.536,393.684 167.579 C 393.387 167.622,393.032 167.751,392.894 167.865 C 392.756 167.979,392.468 168.006,392.253 167.923 C 391.987 167.821,391.913 167.854,392.019 168.026 C 392.121 168.191,392.058 168.233,391.837 168.149 C 391.651 168.077,391.327 168.093,391.117 168.184 C 390.907 168.275,390.590 168.378,390.413 168.413 C 390.235 168.449,390.059 168.571,390.021 168.684 C 389.983 168.798,389.760 168.841,389.526 168.780 C 389.292 168.719,389.101 168.769,389.101 168.891 C 389.101 169.014,388.889 169.059,388.631 168.992 C 388.372 168.924,388.216 168.958,388.283 169.066 C 388.350 169.175,388.120 169.281,387.772 169.302 C 386.303 169.390,386.063 169.437,386.175 169.619 C 386.240 169.723,386.140 169.822,385.953 169.837 C 385.766 169.851,385.540 169.882,385.450 169.904 C 383.944 170.273,382.976 170.343,382.234 170.134 C 381.339 169.881,381.035 169.728,381.035 169.530 C 381.035 169.404,380.971 169.365,380.892 169.444 C 380.813 169.523,380.641 169.505,380.511 169.405 C 380.215 169.179,378.158 168.602,377.913 168.676 C 377.814 168.706,377.787 168.643,377.852 168.537 C 377.918 168.431,377.312 168.170,376.506 167.956 C 375.700 167.742,374.943 167.492,374.823 167.399 C 374.703 167.306,373.967 167.012,373.188 166.744 C 372.409 166.476,371.715 166.171,371.646 166.065 C 371.577 165.960,371.209 165.852,370.829 165.825 C 370.448 165.798,370.137 165.692,370.137 165.588 C 370.136 165.484,369.940 165.450,369.700 165.513 C 369.460 165.575,369.264 165.538,369.264 165.429 C 369.264 165.321,369.117 165.232,368.937 165.232 C 368.757 165.232,368.610 165.127,368.610 164.999 C 368.610 164.861,368.422 164.826,368.147 164.913 C 367.835 165.012,367.733 164.981,367.833 164.819 C 367.969 164.600,367.547 164.488,366.703 164.519 C 366.553 164.525,366.431 164.442,366.431 164.335 C 366.431 164.229,366.292 164.142,366.122 164.142 C 365.952 164.142,365.780 164.050,365.740 163.937 C 365.700 163.825,365.373 163.685,365.014 163.628 C 364.654 163.571,364.360 163.508,364.360 163.489 C 364.360 163.470,364.207 163.424,364.020 163.388 C 363.834 163.351,363.256 163.116,362.737 162.865 C 362.218 162.614,361.709 162.461,361.605 162.525 C 361.502 162.589,361.417 162.532,361.417 162.398 C 361.417 162.264,361.326 162.211,361.214 162.280 C 361.033 162.392,359.513 161.809,359.237 161.521 C 359.025 161.301,356.766 160.673,356.586 160.785 C 356.486 160.847,356.403 160.761,356.403 160.594 C 356.403 160.427,356.281 160.282,356.131 160.272 C 355.671 160.240,355.041 160.064,353.686 159.586 C 352.971 159.334,352.352 159.128,352.311 159.128 C 352.270 159.128,352.299 159.025,352.377 158.899 C 352.474 158.743,352.615 158.751,352.824 158.925 C 352.992 159.064,353.421 159.135,353.777 159.083 C 354.186 159.023,354.465 159.094,354.535 159.276 C 354.596 159.434,354.753 159.564,354.883 159.564 C 355.016 159.564,355.048 159.443,354.957 159.292 C 354.828 159.076,354.862 159.074,355.123 159.285 C 355.304 159.431,356.244 159.579,357.213 159.612 C 358.182 159.646,358.938 159.735,358.891 159.811 C 358.845 159.886,359.125 159.953,359.513 159.958 C 360.507 159.972,362.139 160.246,362.398 160.442 C 362.518 160.533,363.014 160.600,363.500 160.592 C 363.986 160.583,364.490 160.642,364.620 160.722 C 364.750 160.802,365.726 160.910,366.788 160.961 C 367.850 161.013,368.891 161.122,369.101 161.205 C 369.311 161.287,369.633 161.297,369.818 161.226 C 370.006 161.154,370.205 161.235,370.273 161.410 C 370.339 161.582,370.654 161.715,370.973 161.705 C 371.292 161.696,372.191 161.759,372.970 161.846 C 373.749 161.933,374.843 162.019,375.401 162.038 C 375.959 162.056,376.374 162.137,376.325 162.218 C 376.275 162.298,376.555 162.339,376.946 162.308 C 377.337 162.277,377.995 162.392,378.409 162.564 C 378.853 162.748,379.479 162.826,379.935 162.752 C 380.472 162.666,380.608 162.692,380.381 162.837 C 380.118 163.005,380.150 163.046,380.545 163.048 C 380.815 163.050,381.037 162.929,381.039 162.779 C 381.041 162.585,381.097 162.594,381.235 162.811 C 381.341 162.978,381.581 163.056,381.769 162.984 C 381.957 162.912,382.161 162.933,382.222 163.032 C 382.804 163.973,383.328 163.107,383.462 160.981 C 383.657 157.893,383.678 118.428,383.484 118.692 C 383.396 118.812,383.030 118.927,382.670 118.947 C 381.576 119.008,381.035 119.105,381.035 119.241 C 381.035 119.313,380.741 119.351,380.381 119.326 C 379.977 119.298,379.728 119.385,379.728 119.555 C 379.728 119.706,379.507 119.827,379.237 119.824 C 378.135 119.814,377.527 119.900,377.621 120.054 C 377.676 120.144,377.291 120.238,376.767 120.262 C 376.243 120.286,375.591 120.427,375.319 120.576 C 375.046 120.724,374.676 120.865,374.496 120.890 C 372.326 121.187,370.834 121.529,370.943 121.706 C 371.016 121.824,370.971 121.855,370.842 121.776 C 370.714 121.697,370.331 121.743,369.991 121.878 C 369.453 122.092,368.802 122.227,367.793 122.333 C 367.643 122.349,367.520 122.437,367.520 122.529 C 367.520 122.621,367.275 122.651,366.975 122.597 C 366.676 122.543,366.431 122.590,366.431 122.702 C 366.431 122.813,366.126 122.857,365.753 122.798 C 365.303 122.727,365.125 122.770,365.221 122.926 C 365.301 123.055,365.238 123.168,365.081 123.177 C 364.924 123.187,364.599 123.229,364.360 123.273 C 364.120 123.316,363.505 123.412,362.993 123.488 C 362.481 123.563,362.110 123.702,362.169 123.797 C 362.228 123.892,362.032 123.923,361.734 123.866 L 361.193 123.763 361.250 139.020 C 361.301 152.482,361.269 154.272,360.981 154.224 C 360.801 154.195,360.531 154.268,360.381 154.387 C 360.232 154.506,360.109 154.541,360.109 154.464 C 360.109 154.388,359.643 154.559,359.074 154.844 C 358.504 155.129,357.670 155.430,357.221 155.511 C 356.771 155.593,356.403 155.738,356.403 155.834 C 356.403 155.929,355.790 156.190,355.041 156.413 C 354.292 156.636,353.613 156.914,353.532 157.031 C 353.452 157.149,353.224 157.268,353.025 157.298 C 352.826 157.327,352.500 157.423,352.299 157.512 C 352.099 157.601,351.886 157.686,351.826 157.701 C 350.794 157.958,350.518 158.099,350.518 158.369 C 350.518 158.627,350.170 158.692,348.787 158.692 C 347.835 158.692,346.994 158.792,346.919 158.914 C 346.843 159.035,346.701 159.085,346.602 159.024 C 346.295 158.834,344.771 159.584,344.156 160.226 C 343.540 160.870,342.777 162.180,343.018 162.180 C 343.096 162.180,343.062 162.302,342.944 162.452 C 342.649 162.824,342.283 164.588,342.117 166.431 C 341.923 168.587,341.891 168.794,341.366 171.226 C 340.709 174.267,340.111 176.275,339.528 177.404 C 339.347 177.752,339.261 178.099,339.337 178.174 C 339.412 178.249,339.353 178.311,339.206 178.311 C 339.059 178.311,338.993 178.398,339.058 178.504 C 339.124 178.610,339.032 178.818,338.853 178.967 C 338.675 179.115,338.529 179.340,338.529 179.467 C 338.529 180.014,335.884 183.577,334.281 185.190 C 329.670 189.829,324.642 191.565,314.704 191.953 L 311.063 192.094 311.063 181.419 L 311.063 170.744 313.297 170.618 C 315.444 170.498,316.878 170.162,317.217 169.700 C 317.305 169.580,317.379 169.561,317.381 169.658 C 317.388 170.055,318.779 168.979,319.439 168.065 C 320.115 167.129,320.996 165.232,320.754 165.232 C 320.690 165.232,320.730 165.060,320.841 164.850 C 320.953 164.640,321.111 163.733,321.192 162.834 C 321.274 161.935,321.376 160.856,321.419 160.436 C 321.462 160.016,321.561 158.839,321.638 157.820 C 321.850 155.032,321.899 154.613,322.277 152.402 C 322.468 151.280,322.721 150.183,322.838 149.964 C 322.956 149.745,323.052 149.363,323.052 149.115 C 323.052 148.867,323.150 148.665,323.270 148.665 C 323.390 148.665,323.467 148.591,323.441 148.501 C 323.415 148.411,323.660 147.923,323.986 147.416 C 324.311 146.909,324.578 146.439,324.578 146.371 C 324.578 146.304,324.678 146.130,324.800 145.985 C 324.922 145.841,325.216 145.486,325.454 145.197 C 326.400 144.050,328.033 142.419,328.844 141.810 C 329.315 141.457,329.749 141.113,329.809 141.047 C 330.679 140.085,335.952 138.018,338.529 137.629 C 338.948 137.566,339.537 137.473,339.837 137.424 C 340.136 137.374,342.589 137.271,345.286 137.194 C 347.984 137.117,350.213 137.037,350.240 137.015 C 350.268 136.994,350.297 133.513,350.305 129.280 C 350.314 125.046,350.380 121.643,350.454 121.716 C 350.527 121.789,350.694 121.762,350.825 121.656 C 350.956 121.550,351.700 121.289,352.480 121.075 C 353.259 120.861,353.976 120.555,354.073 120.393 C 354.171 120.232,354.342 120.157,354.455 120.226 C 354.567 120.296,354.659 120.252,354.659 120.129 C 354.659 120.005,354.807 119.961,354.986 120.030 C 355.166 120.099,355.313 120.050,355.313 119.921 C 355.313 119.792,355.460 119.743,355.640 119.812 C 355.820 119.881,355.967 119.838,355.967 119.717 C 355.967 119.595,356.163 119.547,356.403 119.610 C 356.643 119.673,356.839 119.627,356.839 119.509 C 356.839 119.391,357.281 119.170,357.820 119.019 C 358.360 118.868,358.801 118.668,358.801 118.575 C 358.801 118.482,358.997 118.457,359.237 118.520 C 359.477 118.583,359.673 118.532,359.673 118.408 C 359.673 118.284,359.961 118.119,360.312 118.041 C 360.663 117.964,361.067 117.761,361.209 117.590 C 361.358 117.410,361.666 117.329,361.942 117.399 C 362.252 117.477,362.553 117.368,362.809 117.084 C 363.025 116.846,363.330 116.700,363.486 116.760 C 363.643 116.820,363.833 116.768,363.909 116.646 C 363.985 116.523,364.207 116.484,364.402 116.559 C 364.661 116.658,364.709 116.616,364.578 116.403 C 364.444 116.188,364.496 116.149,364.775 116.256 C 364.982 116.336,365.562 116.220,366.064 115.998 C 367.483 115.371,367.835 115.241,368.011 115.279 C 368.101 115.298,368.174 115.221,368.174 115.108 C 368.174 114.995,368.371 114.940,368.610 114.986 C 368.890 115.040,369.046 114.953,369.046 114.743 C 369.046 114.563,369.127 114.465,369.225 114.526 C 369.479 114.683,371.919 113.899,371.739 113.719 C 371.657 113.637,371.794 113.569,372.044 113.569 C 372.293 113.569,372.530 113.473,372.570 113.356 C 372.610 113.238,373.081 113.087,373.616 113.020 C 374.151 112.954,374.746 112.757,374.938 112.583 C 375.130 112.409,375.602 112.204,375.986 112.127 C 376.370 112.050,376.739 111.900,376.804 111.794 C 376.870 111.688,377.014 111.656,377.124 111.724 C 377.235 111.793,377.266 111.696,377.195 111.510 C 377.123 111.324,376.977 111.172,376.870 111.172 C 376.763 111.172,376.496 111.000,376.277 110.790 C 375.585 110.128,374.715 109.427,374.653 109.483 C 374.583 109.547,373.953 109.033,373.451 108.501 C 373.253 108.292,372.974 108.120,372.831 108.120 C 372.688 108.120,372.538 108.036,372.498 107.933 C 372.402 107.688,369.868 105.965,368.130 104.964 C 367.375 104.529,366.365 103.933,365.886 103.639 C 364.375 102.714,363.815 102.436,363.811 102.610 C 363.810 102.703,363.736 102.672,363.648 102.541 C 363.460 102.261,358.383 99.777,357.984 99.769 C 357.834 99.766,357.711 99.698,357.711 99.617 C 357.711 99.536,357.314 99.350,356.828 99.205 C 355.700 98.867,355.792 99.444,355.674 91.989 C 355.618 88.452,355.522 85.313,355.460 85.014 C 355.399 84.714,355.289 83.929,355.216 83.270 C 354.997 81.293,354.434 77.516,354.306 77.166 C 354.240 76.986,354.142 76.496,354.089 76.076 C 354.036 75.657,353.842 74.725,353.658 74.005 C 353.474 73.286,353.236 72.354,353.130 71.935 C 352.347 68.851,350.404 62.844,350.051 62.417 C 349.936 62.277,349.792 61.887,349.730 61.549 C 349.669 61.212,349.535 60.884,349.432 60.820 C 349.329 60.756,349.175 60.428,349.090 60.090 C 349.005 59.752,348.703 58.993,348.419 58.403 C 348.134 57.813,347.900 57.281,347.899 57.222 C 347.896 57.040,345.018 51.342,344.871 51.226 C 344.795 51.166,344.612 50.872,344.466 50.572 C 344.319 50.272,344.103 49.880,343.985 49.700 C 343.867 49.520,343.286 48.540,342.694 47.520 C 342.103 46.501,341.410 45.447,341.155 45.177 C 340.900 44.907,340.763 44.687,340.850 44.687 C 340.937 44.687,340.794 44.487,340.532 44.242 C 340.269 43.998,340.054 43.697,340.054 43.574 C 340.054 43.450,339.785 42.988,339.455 42.547 C 339.125 42.105,338.785 41.646,338.698 41.526 C 337.476 39.838,333.839 35.433,332.750 34.322 C 331.972 33.528,331.335 32.829,331.335 32.767 C 331.335 32.647,327.461 28.801,325.871 27.343 C 323.260 24.949,317.633 20.490,317.221 20.490 C 317.071 20.490,316.948 20.404,316.948 20.299 C 316.948 20.103,313.464 17.657,313.184 17.657 C 313.098 17.657,312.562 17.300,311.991 16.865 C 311.420 16.429,310.610 15.914,310.191 15.720 C 309.771 15.526,309.238 15.196,309.005 14.986 C 308.773 14.777,308.453 14.605,308.295 14.605 C 308.137 14.605,307.603 14.312,307.110 13.955 C 306.616 13.597,306.138 13.351,306.047 13.408 C 305.955 13.464,305.759 13.364,305.611 13.186 C 305.463 13.007,305.247 12.861,305.130 12.861 C 305.014 12.861,304.671 12.666,304.368 12.428 C 304.066 12.190,303.731 12.049,303.626 12.114 C 303.520 12.179,303.433 12.146,303.433 12.039 C 303.433 11.933,302.918 11.617,302.289 11.337 C 301.659 11.058,300.703 10.626,300.163 10.378 C 299.624 10.129,299.134 9.919,299.074 9.911 C 299.014 9.903,298.474 9.675,297.875 9.405 C 297.275 9.135,296.589 8.830,296.349 8.727 C 296.109 8.625,295.471 8.341,294.932 8.098 C 293.601 7.496,290.354 6.328,290.354 6.451 C 290.354 6.505,290.134 6.410,289.864 6.238 C 289.451 5.976,285.126 4.582,283.706 4.252 C 283.466 4.197,282.583 3.952,281.744 3.709 C 280.126 3.240,273.837 1.866,272.371 1.660 C 271.891 1.593,270.616 1.395,269.537 1.220 C 268.458 1.045,266.986 0.844,266.267 0.773 C 265.548 0.702,264.665 0.599,264.305 0.543 C 263.946 0.487,263.063 0.380,262.343 0.306 C 260.856 0.152,245.125 -0.038,244.991 0.096 M106.812 112.264 C 108.194 112.476,110.422 113.349,111.254 114.005 C 112.077 114.655,114.368 117.091,114.275 117.218 C 114.254 117.246,114.426 117.713,114.659 118.254 C 117.943 125.918,110.518 133.301,101.975 130.865 C 95.941 129.144,93.010 120.912,96.902 116.613 C 97.114 116.378,97.216 116.185,97.127 116.185 C 96.862 116.185,98.348 114.825,99.514 114.001 C 101.263 112.763,102.341 112.396,105.177 112.072 C 105.297 112.058,106.033 112.145,106.812 112.264 M221.706 139.346 C 221.715 152.084,221.758 163.019,221.802 163.644 C 221.896 165.000,222.540 167.411,222.808 167.411 C 222.912 167.411,222.986 167.485,222.971 167.575 C 222.901 168.021,223.076 168.324,223.998 169.350 C 224.549 169.962,225.138 170.463,225.306 170.463 C 225.475 170.463,225.613 170.567,225.613 170.694 C 225.613 170.821,225.711 170.864,225.831 170.790 C 225.951 170.716,226.049 170.739,226.049 170.841 C 226.049 171.171,227.974 171.553,229.641 171.553 C 234.705 171.553,238.249 167.126,237.273 162.022 C 236.870 159.919,235.091 157.166,234.134 157.166 C 234.003 157.166,233.896 157.078,233.896 156.970 C 233.896 156.798,233.285 156.503,232.153 156.126 C 230.568 155.600,227.153 156.034,226.477 156.849 C 226.334 157.021,226.142 157.115,226.049 157.057 C 225.956 157.000,225.759 157.099,225.611 157.278 C 225.463 157.456,225.256 157.602,225.150 157.602 C 224.918 157.602,224.890 135.598,225.123 135.558 C 226.093 135.393,226.840 135.356,229.755 135.331 C 232.079 135.312,233.712 135.413,234.986 135.657 C 236.005 135.852,237.035 136.041,237.275 136.078 C 237.515 136.114,237.809 136.201,237.929 136.270 C 238.049 136.340,238.441 136.477,238.801 136.573 C 240.225 136.956,240.873 137.246,243.815 138.818 C 244.414 139.138,245.095 139.572,245.327 139.782 C 245.560 139.992,245.820 140.163,245.907 140.163 C 246.450 140.163,250.384 143.898,251.821 145.777 C 252.302 146.406,252.788 146.921,252.900 146.921 C 253.013 146.921,253.049 147.011,252.982 147.120 C 252.914 147.230,252.937 147.353,253.032 147.393 C 253.292 147.502,254.454 149.305,254.906 150.300 C 256.109 152.947,256.376 153.597,256.485 154.139 C 256.523 154.333,256.670 154.774,256.810 155.120 C 256.950 155.466,257.090 155.896,257.121 156.076 C 257.152 156.256,257.295 156.992,257.440 157.711 C 257.827 159.633,257.842 159.822,257.882 163.270 C 257.902 165.008,257.811 167.019,257.680 167.738 C 257.549 168.458,257.397 169.341,257.343 169.700 C 257.234 170.423,257.132 170.843,256.944 171.335 C 256.579 172.289,256.047 174.081,256.086 174.223 C 256.111 174.313,256.033 174.387,255.913 174.387 C 255.793 174.387,255.714 174.460,255.738 174.550 C 255.762 174.640,255.448 175.351,255.041 176.131 C 254.634 176.910,254.320 177.621,254.344 177.711 C 254.367 177.801,254.305 177.875,254.204 177.875 C 254.103 177.875,253.908 178.124,253.769 178.428 C 253.630 178.732,253.417 179.100,253.294 179.245 C 252.711 179.936,252.253 180.512,251.867 181.039 C 251.511 181.525,250.155 182.886,247.711 185.209 C 247.440 185.467,247.139 185.712,247.042 185.754 C 246.946 185.797,246.180 186.284,245.341 186.838 C 243.912 187.779,241.259 189.243,240.765 189.361 C 240.491 189.427,238.046 190.271,237.602 190.453 C 237.422 190.527,237.191 190.568,237.089 190.545 C 236.986 190.521,236.781 190.603,236.633 190.726 C 236.484 190.849,236.317 190.903,236.260 190.847 C 236.203 190.790,235.820 190.841,235.408 190.960 C 233.954 191.381,227.043 191.647,225.831 191.329 C 225.651 191.282,225.063 191.172,224.523 191.084 C 223.118 190.857,222.926 190.817,222.561 190.670 C 222.381 190.598,221.793 190.427,221.253 190.289 C 220.714 190.151,219.684 189.791,218.965 189.489 C 218.245 189.187,217.411 188.837,217.112 188.712 C 216.812 188.586,216.518 188.471,216.458 188.456 C 216.398 188.441,215.789 188.065,215.106 187.620 C 214.422 187.176,213.810 186.812,213.746 186.812 C 213.682 186.812,213.428 186.640,213.183 186.431 C 212.938 186.221,212.694 186.071,212.641 186.099 C 212.588 186.126,212.309 185.930,212.021 185.663 C 211.734 185.396,211.070 184.795,210.545 184.328 C 207.963 182.028,203.825 176.101,203.797 174.663 C 203.795 174.571,203.666 174.300,203.510 174.060 C 203.354 173.820,203.159 173.262,203.077 172.820 C 202.995 172.378,202.741 171.446,202.513 170.749 C 202.285 170.053,202.044 169.041,201.977 168.501 C 201.910 167.962,201.787 167.177,201.705 166.757 C 201.622 166.338,201.519 154.787,201.476 141.090 L 201.398 116.185 211.544 116.185 L 221.689 116.185 221.706 139.346 M68.556 135.478 C 69.035 135.557,69.683 135.652,69.995 135.689 C 71.567 135.874,75.484 137.413,77.112 138.485 C 77.621 138.820,78.038 139.040,78.038 138.973 C 78.038 138.907,78.342 139.123,78.713 139.453 C 79.084 139.784,79.445 140.054,79.516 140.054 C 80.198 140.054,84.373 145.011,85.392 147.030 C 85.695 147.629,86.003 148.169,86.078 148.229 C 86.152 148.289,86.236 148.436,86.266 148.556 C 86.295 148.676,86.528 149.362,86.784 150.082 C 87.479 152.034,88.047 154.402,88.429 156.948 C 88.492 157.368,88.591 165.093,88.649 174.114 L 88.754 190.518 78.606 190.518 L 68.458 190.518 68.398 174.114 L 68.338 157.711 67.836 156.905 C 66.437 154.654,62.377 154.558,61.330 156.751 C 60.629 158.222,60.599 158.941,60.599 174.675 L 60.599 190.518 50.572 190.518 L 40.545 190.518 40.520 175.095 C 40.487 155.276,40.439 156.799,41.188 153.896 C 42.036 150.609,42.688 149.089,44.391 146.429 C 44.910 145.618,45.357 144.882,45.386 144.794 C 45.414 144.705,45.685 144.379,45.988 144.069 C 46.291 143.759,47.108 142.900,47.803 142.161 C 48.497 141.422,49.157 140.817,49.269 140.817 C 49.381 140.817,49.632 140.573,49.828 140.274 C 50.024 139.976,50.263 139.780,50.359 139.840 C 50.456 139.899,50.568 139.874,50.608 139.783 C 50.718 139.535,52.510 138.386,53.664 137.824 C 54.853 137.245,56.712 136.404,56.948 136.339 C 57.038 136.315,57.161 136.270,57.221 136.240 C 57.343 136.179,57.329 136.182,58.529 135.922 C 59.008 135.819,59.548 135.701,59.728 135.661 C 59.907 135.620,60.430 135.547,60.889 135.497 C 61.348 135.447,61.757 135.373,61.797 135.332 C 61.925 135.204,67.646 135.327,68.556 135.478 M146.376 135.583 C 146.975 135.709,147.662 135.850,147.902 135.895 C 148.142 135.940,148.730 136.125,149.210 136.305 C 150.297 136.714,150.683 136.836,150.929 136.847 C 151.036 136.852,151.183 136.944,151.256 137.051 C 151.330 137.159,152.076 137.627,152.916 138.091 C 153.755 138.556,154.578 139.072,154.744 139.238 C 154.911 139.404,155.304 139.702,155.616 139.901 C 155.929 140.099,156.264 140.387,156.360 140.540 C 156.455 140.692,156.625 140.817,156.737 140.817 C 156.848 140.817,157.341 141.253,157.832 141.785 C 158.662 142.686,159.141 142.845,159.564 142.359 C 160.919 140.807,168.610 135.770,168.610 136.435 C 168.610 136.470,169.003 136.348,169.482 136.164 C 171.544 135.375,175.542 135.015,177.826 135.412 C 178.338 135.502,179.074 135.613,179.461 135.660 C 179.847 135.707,180.311 135.800,180.490 135.867 C 181.660 136.300,183.896 136.977,184.033 136.939 C 184.123 136.914,184.196 136.980,184.196 137.086 C 184.196 137.192,184.368 137.324,184.578 137.379 C 185.254 137.555,185.388 137.625,185.818 138.026 C 186.050 138.242,186.369 138.420,186.526 138.420 C 186.683 138.420,186.987 138.591,187.201 138.801 C 187.414 139.011,187.976 139.474,188.449 139.831 C 188.922 140.188,189.606 140.819,189.968 141.234 C 190.330 141.649,190.847 142.211,191.117 142.483 C 191.387 142.755,191.608 143.075,191.608 143.195 C 191.608 143.314,191.748 143.490,191.919 143.586 C 192.090 143.682,192.236 143.835,192.242 143.927 C 192.248 144.018,192.476 144.395,192.748 144.763 C 193.020 145.131,193.244 145.497,193.246 145.577 C 193.249 145.657,193.473 146.177,193.745 146.734 C 194.017 147.290,194.276 147.928,194.322 148.151 C 194.367 148.373,194.604 149.292,194.848 150.191 C 196.046 154.601,196.012 153.882,195.987 174.659 L 195.967 190.518 185.940 190.518 L 175.913 190.518 175.906 175.858 C 175.899 161.140,175.843 158.862,175.444 157.305 C 174.762 154.638,171.032 154.416,169.771 156.967 C 168.965 158.596,168.970 158.495,168.953 175.422 L 168.937 190.518 158.910 190.518 L 148.883 190.518 148.869 175.967 C 148.850 157.050,148.804 156.495,147.167 155.590 C 145.541 154.691,142.561 155.645,142.561 157.064 C 142.561 157.607,142.532 157.701,142.270 158.017 C 142.083 158.242,142.000 162.570,141.954 174.420 L 141.891 190.518 131.872 190.518 L 121.853 190.518 121.827 173.243 C 121.813 163.741,121.801 155.918,121.802 155.858 C 121.803 155.554,122.088 152.871,122.150 152.589 C 122.189 152.409,122.299 151.978,122.395 151.632 C 122.491 151.286,122.587 150.844,122.608 150.651 C 122.664 150.145,122.767 149.897,124.391 146.376 C 124.715 145.675,125.158 144.918,125.349 144.741 C 125.414 144.681,125.953 144.003,126.548 143.233 C 128.029 141.318,128.861 140.518,130.899 139.051 C 133.765 136.989,136.659 135.821,139.837 135.444 C 140.436 135.373,140.946 135.299,140.971 135.279 C 141.130 135.150,145.486 135.394,146.376 135.583 M115.313 163.379 L 115.313 190.518 105.286 190.518 L 95.259 190.518 95.259 163.379 L 95.259 136.240 105.286 136.240 L 115.313 136.240 115.313 163.379 M281.650 152.752 C 281.667 171.470,281.583 170.513,283.317 171.682 C 284.400 172.411,287.956 172.290,287.956 171.523 C 287.956 171.406,288.054 171.370,288.174 171.444 C 288.294 171.518,288.392 171.482,288.392 171.364 C 288.392 171.245,288.519 171.019,288.673 170.860 C 289.435 170.077,289.482 169.029,289.482 152.945 L 289.482 137.112 299.629 137.112 L 309.776 137.112 309.743 153.534 C 309.725 162.759,309.620 170.426,309.505 171.027 C 309.392 171.616,309.193 172.540,309.064 173.079 C 308.934 173.619,308.809 174.207,308.787 174.387 C 308.684 175.205,306.645 179.904,305.999 180.812 C 304.913 182.336,303.020 184.566,301.924 185.613 C 299.487 187.940,299.700 187.775,297.548 189.010 C 295.636 190.108,295.069 190.388,294.614 190.461 C 294.380 190.498,294.135 190.600,294.069 190.687 C 294.004 190.774,293.853 190.855,293.733 190.869 C 293.613 190.882,292.975 191.068,292.316 191.282 C 291.657 191.496,290.970 191.691,290.790 191.715 C 286.331 192.306,282.601 192.220,279.405 191.452 C 278.533 191.243,277.698 191.083,277.548 191.097 C 277.398 191.112,277.275 191.036,277.275 190.929 C 277.275 190.823,277.131 190.736,276.956 190.736 C 276.780 190.736,276.265 190.574,275.811 190.377 C 274.251 189.699,273.460 189.319,273.351 189.194 C 273.292 189.125,273.095 189.003,272.916 188.923 C 272.541 188.755,271.769 188.282,271.608 188.120 C 271.548 188.060,271.008 187.619,270.409 187.139 C 269.046 186.048,266.812 183.819,266.812 183.551 C 266.812 183.440,266.591 183.194,266.322 183.005 C 266.052 182.816,265.872 182.639,265.923 182.612 C 265.973 182.584,265.731 182.120,265.385 181.580 C 264.862 180.764,263.773 178.707,263.654 178.311 C 263.636 178.251,263.311 177.221,262.932 176.022 C 262.552 174.823,262.188 173.450,262.123 172.970 C 262.057 172.490,261.948 171.853,261.880 171.553 C 261.719 170.844,261.529 169.005,261.532 168.174 C 261.533 167.815,261.544 160.678,261.557 152.316 L 261.580 137.112 271.608 137.112 L 281.635 137.112 281.650 152.752 " stroke="none" fill="#1c7445" fill-rule="evenodd"></path><path id="path2" d="" stroke="none" fill="#24744c" fill-rule="evenodd"></path><path id="path3" d="" stroke="none" fill="#287444" fill-rule="evenodd"></path><path id="path4" d="" stroke="none" fill="#287444" fill-rule="evenodd"></path></g></svg>